<?xml version="1.0" standalone="no"?>
<!DOCTYPE svg PUBLIC "-//W3C//DTD SVG 20010904//EN"
 "http://www.w3.org/TR/2001/REC-SVG-20010904/DTD/svg10.dtd">
<svg version="1.0" xmlns="http://www.w3.org/2000/svg"
 width="600.000000pt" height="600.000000pt" viewBox="0 0 600.000000 600.000000"
 preserveAspectRatio="xMidYMid meet">
<metadata>
Created by potrace 1.14, written by Peter Selinger 2001-2017
</metadata>
<g transform="translate(0.000000,600.000000) scale(0.100000,-0.100000)"
fill="#000000" stroke="none">
<path d="M2926 5814 c-33 -8 -97 -31 -143 -50 -46 -20 -85 -35 -87 -33 -2 2
-17 24 -35 48 l-31 44 0 -36 c0 -20 5 -48 12 -63 12 -25 10 -28 -27 -58 -81
-63 -159 -143 -210 -216 -64 -90 -97 -122 -150 -145 -110 -48 -144 -68 -189
-112 -93 -92 -160 -227 -193 -393 -3 -14 -5 -57 -6 -96 0 -60 4 -79 27 -117
33 -58 76 -91 141 -109 55 -16 109 -15 157 1 17 6 33 11 35 11 2 0 2 -113 1
-252 l-3 -252 -255 -148 c-140 -81 -266 -154 -280 -161 -14 -8 -113 -64 -220
-126 -107 -62 -213 -123 -235 -136 -22 -12 -55 -31 -72 -41 l-33 -19 0 -1057
0 -1056 68 -39 c37 -22 261 -151 497 -287 237 -136 459 -265 495 -286 97 -57
620 -360 660 -382 19 -11 52 -29 72 -40 l36 -21 134 78 c73 42 153 89 178 103
25 14 155 89 290 167 135 78 326 188 425 245 99 57 214 123 255 147 41 24 82
48 90 53 8 4 114 65 235 135 l220 126 0 1056 0 1056 -227 131 c-125 72 -230
134 -233 138 -4 3 5 24 19 45 62 93 88 211 101 461 6 111 8 125 21 187 16 74
58 121 167 186 39 23 90 60 113 81 110 102 160 364 105 561 -51 186 -174 350
-348 466 -68 45 -196 103 -258 118 -129 30 -289 35 -395 14 -30 -6 -84 -17
-120 -25 -67 -13 -148 -14 -198 -1 -15 4 -37 9 -49 11 -12 2 -80 22 -150 44
-71 21 -141 42 -158 45 -58 14 -191 13 -249 -1z m174 -173 c-32 -18 -131 -35
-194 -32 -76 3 59 39 149 40 37 0 54 -3 45 -8z m122 -22 c35 -12 68 -25 73
-29 6 -5 37 -17 70 -29 33 -11 51 -21 40 -22 -11 0 -32 -2 -48 -3 -53 -5 -207
66 -207 95 0 12 1 12 72 -12z m-84 -94 c107 -112 267 -131 366 -44 l44 39 175
4 c221 5 291 -8 426 -79 168 -88 269 -236 224 -327 -27 -56 -132 -106 -226
-110 -58 -2 -43 -16 26 -25 132 -16 210 1 264 59 31 33 63 110 70 168 3 31 10
49 17 47 26 -9 96 -116 117 -180 53 -164 -18 -330 -190 -444 -64 -42 -67 -45
-103 -93 -53 -73 -65 -139 -69 -387 -1 -83 -6 -179 -10 -212 -19 -138 -108
-265 -227 -323 -55 -27 -76 -32 -136 -32 -83 1 -135 23 -197 85 -67 67 -81
115 -94 317 -9 135 -54 218 -142 262 -121 60 -135 84 -139 227 -4 172 -46 273
-131 314 -58 28 -122 23 -263 -22 -132 -41 -225 -44 -315 -11 -82 31 -171 49
-225 46 -64 -4 -115 -28 -174 -83 -114 -108 -185 -101 -173 17 14 132 56 226
150 328 l60 65 56 -58 c57 -59 117 -95 181 -108 l35 -8 -31 27 c-58 48 -80
121 -58 187 38 113 271 388 318 375 106 -28 128 -30 197 -18 39 7 83 19 97 27
15 8 29 14 32 15 3 0 24 -20 48 -45z m-539 -957 c178 -43 339 -42 397 4 7 5
35 11 64 15 39 4 54 2 61 -8 5 -8 9 -53 9 -100 0 -152 46 -252 148 -325 140
-100 160 -131 168 -265 10 -192 37 -270 118 -347 104 -99 230 -148 360 -139
39 3 85 10 102 15 18 6 36 6 40 2 5 -5 29 -20 54 -33 77 -42 345 -198 354
-207 9 -9 14 -1756 5 -1763 -4 -4 -428 -250 -489 -284 -19 -11 -80 -46 -135
-78 -121 -70 -283 -164 -550 -317 -110 -64 -220 -128 -245 -142 -25 -15 -59
-33 -75 -42 l-31 -16 -229 132 c-127 73 -255 147 -285 165 -30 18 -75 44 -100
57 -98 55 -886 511 -897 520 -10 8 -13 198 -13 888 l0 878 143 82 c78 46 158
91 177 102 59 34 194 112 215 125 11 7 32 17 48 24 15 6 27 15 27 20 0 5 5 9
11 9 6 0 43 20 83 44 40 24 88 52 107 63 19 10 91 52 162 92 l127 74 1 48 c0
27 1 199 1 382 0 182 2 335 5 340 2 4 9 4 15 1 6 -4 27 -11 47 -16z"/>
<path d="M2843 5263 c21 -200 184 -297 387 -230 l74 25 48 -48 48 -48 -53 12
c-29 7 -59 16 -65 20 -25 15 -10 -12 26 -46 77 -74 150 -90 232 -52 64 30 65
30 131 -1 132 -60 252 22 265 183 l5 57 -37 -55 c-48 -71 -85 -101 -134 -107
-38 -5 -54 7 -30 22 15 9 41 74 46 113 l4 34 -41 -35 c-23 -20 -57 -43 -77
-53 -33 -16 -36 -16 -48 1 -14 19 -21 16 -61 -22 -24 -22 -125 17 -192 75
l-33 29 -62 -18 c-86 -27 -180 -27 -242 0 -59 26 -92 56 -152 136 l-45 60 6
-52z"/>
<path d="M3480 4480 c0 -12 75 -77 110 -95 37 -19 97 -25 128 -14 19 7 22 16
22 64 l0 55 -27 -17 c-34 -23 -130 -23 -190 -1 -24 9 -43 12 -43 8z"/>
<path d="M2753 4172 l-63 -36 0 -76 0 -75 65 -38 65 -38 58 31 c31 18 62 36
67 41 6 6 10 42 10 82 l0 72 -65 37 c-36 21 -67 37 -70 37 -3 0 -33 -16 -67
-37z"/>
<path d="M3187 3625 c-32 -19 -61 -35 -65 -35 -4 -1 -18 -10 -31 -21 -23 -19
-25 -27 -25 -122 l-1 -102 43 -27 c23 -16 45 -28 48 -28 2 0 23 -12 46 -26
l41 -26 51 26 c28 15 69 37 91 50 l40 23 0 112 0 112 -65 35 c-36 20 -75 42
-87 50 -12 8 -24 14 -25 14 -2 0 -29 -16 -61 -35z"/>
<path d="M3584 3145 c-247 -66 -368 -350 -241 -568 183 -312 652 -231 718 126
34 188 -80 377 -265 437 -57 18 -153 20 -212 5z"/>
<path d="M2065 2940 c-118 -6 -139 -13 -179 -61 -58 -69 -51 -175 16 -237 45
-41 97 -48 323 -47 149 2 218 6 235 15 111 57 138 184 59 275 -17 18 -45 39
-63 45 -39 12 -230 17 -391 10z"/>
<path d="M1780 2140 c-4 -3 -7 -123 -7 -266 l1 -261 95 -55 c53 -31 112 -64
131 -74 19 -11 37 -22 38 -26 2 -5 8 -8 13 -8 5 0 54 -27 110 -60 55 -33 102
-60 104 -60 1 0 81 -46 176 -101 199 -116 227 -132 289 -167 25 -14 61 -35 80
-47 19 -12 60 -35 90 -53 l56 -31 79 46 c44 25 96 54 115 65 19 11 181 105
360 208 179 103 344 198 366 211 23 13 92 53 153 88 l111 64 0 266 0 266
-1176 0 c-647 0 -1179 -2 -1184 -5z"/>
</g>
</svg>
